<?xml version="1.0" encoding="UTF-8" standalone="no"?>
<!DOCTYPE svg PUBLIC "-//W3C//DTD SVG 1.1//EN"
 "http://www.w3.org/Graphics/SVG/1.1/DTD/svg11.dtd">
<!-- Generated by graphviz version 14.1.3 (20260303.0454)
 -->
<!-- Title: G Pages: 1 -->
<svg width="274pt" height="439pt"
 viewBox="0.00 0.00 274.00 439.00" xmlns="http://www.w3.org/2000/svg" xmlns:xlink="http://www.w3.org/1999/xlink">
<g id="graph0" class="graph" transform="scale(1 1) rotate(0) translate(4 435)">
<title>G</title>
<polygon fill="white" stroke="none" points="-4,4 -4,-435 270,-435 270,4 -4,4"/>
<!-- Input\n(Input) -->
<g id="node1" class="node">
<title>Input\n(Input)</title>
<polygon fill="orange" stroke="black" points="188.47,-431 100.23,-431 77.53,-349 165.77,-349 188.47,-431"/>
<text xml:space="preserve" text-anchor="middle" x="133" y="-393.2" font-family="Times New Roman,serif" font-size="14.00">Input</text>
<text xml:space="preserve" text-anchor="middle" x="133" y="-376.7" font-family="Times New Roman,serif" font-size="14.00">(Input)</text>
</g>
<!-- Outcome1\n(Failed) -->
<g id="node2" class="node">
<title>Outcome1\n(Failed)</title>
<polygon fill="red" stroke="black" points="121.5,-313 48.5,-313 48.5,-272 121.5,-272 121.5,-313"/>
<text xml:space="preserve" text-anchor="middle" x="85" y="-295.7" font-family="Times New Roman,serif" font-size="14.00">Outcome1</text>
<text xml:space="preserve" text-anchor="middle" x="85" y="-279.2" font-family="Times New Roman,serif" font-size="14.00">(Failed)</text>
</g>
<!-- Input\n(Input)&#45;&gt;Outcome1\n(Failed) -->
<g id="edge1" class="edge">
<title>Input\n(Input)&#45;&gt;Outcome1\n(Failed)</title>
<path fill="none" stroke="black" d="M102.23,-348.72C99.74,-342.35 97.22,-334.55 94.18,-324.38"/>
<polygon fill="black" stroke="black" points="97.56,-323.45 91.39,-314.83 90.84,-325.41 97.56,-323.45"/>
</g>
<!-- Outcome2\n(Completed) -->
<g id="node3" class="node">
<title>Outcome2\n(Completed)</title>
<polygon fill="green" stroke="black" points="224.5,-313 139.5,-313 139.5,-272 224.5,-272 224.5,-313"/>
<text xml:space="preserve" text-anchor="middle" x="182" y="-295.7" font-family="Times New Roman,serif" font-size="14.00">Outcome2</text>
<text xml:space="preserve" text-anchor="middle" x="182" y="-279.2" font-family="Times New Roman,serif" font-size="14.00">(Completed)</text>
</g>
<!-- Input\n(Input)&#45;&gt;Outcome2\n(Completed) -->
<g id="edge2" class="edge">
<title>Input\n(Input)&#45;&gt;Outcome2\n(Completed)</title>
<path fill="none" stroke="black" d="M164.42,-348.77C166.96,-342.4 169.54,-334.59 172.63,-324.41"/>
<polygon fill="black" stroke="black" points="175.98,-325.43 175.48,-314.85 169.27,-323.43 175.98,-325.43"/>
</g>
<!-- Choose best outcome\n(Decision) -->
<g id="node4" class="node">
<title>Choose best outcome\n(Decision)</title>
<polygon fill="yellow" stroke="black" points="133,-236 0,-195 133,-154 266,-195 133,-236"/>
<text xml:space="preserve" text-anchor="middle" x="133" y="-198.2" font-family="Times New Roman,serif" font-size="14.00">Choose best outcome</text>
<text xml:space="preserve" text-anchor="middle" x="133" y="-181.7" font-family="Times New Roman,serif" font-size="14.00">(Decision)</text>
</g>
<!-- Outcome1\n(Failed)&#45;&gt;Choose best outcome\n(Decision) -->
<g id="edge3" class="edge">
<title>Outcome1\n(Failed)&#45;&gt;Choose best outcome\n(Decision)</title>
<path fill="none" stroke="black" d="M91.8,-271.58C95.2,-262.36 99.12,-254.19 107.15,-239.8"/>
<polygon fill="black" stroke="black" points="110.08,-241.72 111.96,-231.3 103.99,-238.27 110.08,-241.72"/>
</g>
<!-- Outcome2\n(Completed)&#45;&gt;Choose best outcome\n(Decision) -->
<g id="edge4" class="edge">
<title>Outcome2\n(Completed)&#45;&gt;Choose best outcome\n(Decision)</title>
<path fill="none" stroke="black" d="M175.02,-271.53C171.54,-262.3 167.53,-254.13 159.35,-239.75"/>
<polygon fill="black" stroke="black" points="162.47,-238.16 154.44,-231.25 156.41,-241.66 162.47,-238.16"/>
</g>
<!-- Validation\n(Available) -->
<g id="node5" class="node">
<title>Validation\n(Available)</title>
<polygon fill="lightgreen" stroke="black" points="171.38,-118 94.62,-118 94.62,-77 171.38,-77 171.38,-118"/>
<text xml:space="preserve" text-anchor="middle" x="133" y="-100.7" font-family="Times New Roman,serif" font-size="14.00">Validation</text>
<text xml:space="preserve" text-anchor="middle" x="133" y="-84.2" font-family="Times New Roman,serif" font-size="14.00">(Available)</text>
</g>
<!-- Choose best outcome\n(Decision)&#45;&gt;Validation\n(Available) -->
<g id="edge5" class="edge">
<title>Choose best outcome\n(Decision)&#45;&gt;Validation\n(Available)</title>
<path fill="none" stroke="black" d="M133,-153.69C133,-143.08 133,-135.6 133,-129.32"/>
<polygon fill="black" stroke="black" points="136.5,-129.71 133,-119.71 129.5,-129.71 136.5,-129.71"/>
</g>
<!-- Answer research question\n(Research Question) -->
<g id="node6" class="node">
<title>Answer research question\n(Research Question)</title>
<polygon fill="orange" stroke="black" points="211.12,-41 54.88,-41 54.88,0 211.12,0 211.12,-41"/>
<text xml:space="preserve" text-anchor="middle" x="133" y="-23.7" font-family="Times New Roman,serif" font-size="14.00">Answer research question</text>
<text xml:space="preserve" text-anchor="middle" x="133" y="-7.2" font-family="Times New Roman,serif" font-size="14.00">(Research Question)</text>
</g>
<!-- Validation\n(Available)&#45;&gt;Answer research question\n(Research Question) -->
<g id="edge6" class="edge">
<title>Validation\n(Available)&#45;&gt;Answer research question\n(Research Question)</title>
<path fill="none" stroke="black" d="M133,-76.81C133,-66.15 133,-58.57 133,-52.56"/>
<polygon fill="black" stroke="black" points="136.5,-52.86 133,-42.86 129.5,-52.86 136.5,-52.86"/>
</g>
</g>
</svg>
